<?xml version="1.0" standalone="no"?>
<!DOCTYPE svg PUBLIC "-//W3C//DTD SVG 20010904//EN"
 "http://www.w3.org/TR/2001/REC-SVG-20010904/DTD/svg10.dtd">
<svg version="1.0" xmlns="http://www.w3.org/2000/svg"
 width="159.000000pt" height="159.000000pt" viewBox="0 0 159.000000 159.000000"
 preserveAspectRatio="xMidYMid meet">

<g transform="translate(0.000000,159.000000) scale(0.100000,-0.100000)"
fill="#000000" stroke="none">
<path d="M983 1172 c-84 -30 -115 -55 -169 -141 -2 -1 -15 9 -31 24 -89 84
-171 105 -405 105 l-178 0 0 -110 c0 -102 1 -110 19 -110 11 0 32 11 46 24 22
21 40 25 121 31 130 10 185 3 234 -29 51 -33 81 -93 88 -172 5 -69 -9 -123
-45 -172 -37 -49 -91 -72 -189 -79 -46 -3 -84 -8 -84 -10 0 -2 7 -17 15 -33
22 -42 72 -76 135 -93 68 -17 122 -5 197 46 49 33 49 33 78 15 69 -42 164 -63
290 -62 140 0 208 21 269 80 53 51 69 90 69 159 0 134 -68 187 -307 240 -53
12 -87 26 -103 41 -29 29 -29 36 1 71 23 27 28 28 108 27 65 0 96 -6 145 -26
l62 -25 31 74 c17 40 28 78 25 83 -3 5 -31 19 -63 31 -81 32 -284 38 -359 11z
m-40 -417 c19 -8 83 -26 143 -41 74 -19 116 -35 131 -50 29 -29 29 -39 -2 -69
-22 -23 -32 -25 -107 -25 -62 0 -101 7 -152 25 -37 13 -70 26 -73 29 -5 5 16
146 22 146 1 0 18 -7 38 -15z"/>
<path d="M327 962 c-4 -5 10 -12 31 -16 20 -3 55 -15 77 -26 26 -13 31 -18 15
-15 -172 36 -219 29 -289 -41 -24 -24 -42 -46 -40 -49 3 -2 32 6 64 19 70 28
157 42 181 28 12 -7 1 -11 -44 -16 -88 -10 -176 -56 -207 -110 -28 -48 -33
-121 -11 -171 l13 -30 7 30 c18 78 28 103 55 141 17 22 53 53 82 68 44 24 68
30 173 37 66 5 127 11 134 14 6 2 12 17 12 32 -1 51 -54 95 -120 99 -19 1 -56
5 -81 9 -28 4 -49 3 -52 -3z m211 -110 c6 -18 -15 -14 -22 4 -4 10 -1 14 6 12
6 -2 14 -10 16 -16z"/>
<path d="M585 821 c-3 -6 -17 -11 -30 -11 -34 0 -59 -11 -45 -20 6 -4 -25 -5
-70 -2 -119 7 -200 -32 -245 -118 -37 -72 -26 -166 27 -226 52 -59 100 -73 61
-17 -62 88 -54 184 20 261 44 46 95 71 169 81 74 11 108 -3 108 -45 0 -22 2
-23 20 -14 31 16 43 56 28 88 -14 29 -33 38 -43 23z"/>
<path d="M364 714 c-61 -39 -88 -85 -92 -158 -3 -51 0 -66 20 -96 39 -57 82
-80 151 -80 l59 0 -48 33 c-63 42 -94 96 -94 165 0 55 19 113 47 144 23 26 3
22 -43 -8z"/>
<path d="M200 400 c0 -14 7 -20 22 -20 20 0 21 1 3 20 -10 11 -20 20 -22 20
-1 0 -3 -9 -3 -20z"/>
</g>
</svg>
