<?xml version="1.0" standalone="no"?>
<!DOCTYPE svg PUBLIC "-//W3C//DTD SVG 20010904//EN"
 "http://www.w3.org/TR/2001/REC-SVG-20010904/DTD/svg10.dtd">
<svg version="1.0" xmlns="http://www.w3.org/2000/svg"
 width="159.000000pt" height="159.000000pt" viewBox="0 0 159.000000 159.000000"
 preserveAspectRatio="xMidYMid meet">

<g transform="translate(0.000000,159.000000) scale(0.100000,-0.100000)"
fill="#000000" stroke="none">
<path d="M280 1471 c-98 -20 -187 -89 -231 -179 l-24 -47 0 -450 0 -450 27
-51 c35 -67 115 -138 181 -161 48 -16 95 -18 562 -18 467 0 514 2 562 18 66
23 146 94 181 161 l27 51 0 450 0 450 -27 51 c-34 64 -113 136 -176 160 -43
17 -90 19 -547 20 -275 1 -516 -1 -535 -5z m110 -451 l0 -120 105 0 105 0 0
120 0 120 115 0 115 0 0 -340 0 -340 -115 0 -115 0 0 125 0 125 -105 0 -105 0
0 -111 0 -110 55 -25 c149 -68 364 -80 538 -30 100 30 97 29 97 17 0 -15 -118
-69 -189 -87 -47 -12 -94 -15 -170 -12 -117 5 -190 26 -274 78 -47 29 -53 30
-168 30 l-119 0 0 340 0 340 115 0 115 0 0 -120z m757 -516 c8 -22 -13 -88
-37 -109 -24 -22 -24 -19 -6 32 8 22 11 45 7 51 -3 6 -29 12 -56 14 -47 3 -48
4 -25 15 38 18 109 16 117 -3z"/>
</g>
</svg>
